<svg width="24" height="24" viewBox="0 0 24 24" fill="none" xmlns="http://www.w3.org/2000/svg">
<path d="M17.37 10.171L18.71 8.751C20.13 7.251 20.77 5.54099 18.56 3.45099C16.35 1.37099 14.68 2.10099 13.26 3.60099L5.05 12.291C4.74 12.621 4.44 13.271 4.38 13.721L4.01 16.961C3.88 18.131 4.72 18.931 5.88 18.731L9.1 18.181C9.55 18.101 10.18 17.771 10.49 17.431L14.44 13.251" stroke="#959595" stroke-width="1.5" stroke-miterlimit="10" stroke-linecap="round" stroke-linejoin="round"/>
<path d="M11.89 5.05C12.0996 6.39086 12.7486 7.62414 13.735 8.55625C14.7214 9.48836 15.9894 10.0665 17.34 10.2M3 22H14M18 22H21" stroke="#959595" stroke-width="1.5" stroke-miterlimit="10" stroke-linecap="round" stroke-linejoin="round"/>
</svg>
