<svg width="24" height="24" viewBox="0 0 24 24" fill="none" xmlns="http://www.w3.org/2000/svg">
<path d="M16.968 14.44C18.338 14.67 19.848 14.43 20.908 13.72C22.318 12.78 22.318 11.24 20.908 10.3C19.838 9.59 18.308 9.35 16.938 9.59M7.00098 14.44C5.63098 14.67 4.12098 14.43 3.06098 13.72C1.65098 12.78 1.65098 11.24 3.06098 10.3C4.13098 9.59 5.66098 9.35 7.03098 9.59M14.909 17.78C13.319 16.72 10.689 16.72 9.08898 17.78C7.67898 18.72 7.67898 20.26 9.08898 21.2C10.689 22.27 13.309 22.27 14.909 21.2M17.998 7.16C17.935 7.14999 17.8709 7.14999 17.808 7.16C17.1406 7.13587 16.5088 6.85321 16.046 6.37176C15.5832 5.89032 15.3257 5.2478 15.328 4.58C15.328 3.15 16.478 2 17.908 2C18.5922 2 19.2485 2.27182 19.7323 2.75566C20.2162 3.23951 20.488 3.89574 20.488 4.58C20.4861 5.24827 20.226 5.88996 19.7619 6.37081C19.2978 6.85167 18.6658 7.13445 17.998 7.16ZM5.96998 7.16C6.02998 7.15 6.09998 7.15 6.15998 7.16C6.82735 7.13587 7.45919 6.85321 7.92197 6.37176C8.38476 5.89032 8.64223 5.2478 8.63998 4.58C8.63998 3.15 7.48998 2 6.05998 2C5.37572 2 4.71949 2.27182 4.23564 2.75566C3.7518 3.23951 3.47998 3.89574 3.47998 4.58C3.48998 5.98 4.58998 7.11 5.96998 7.16ZM11.998 14.629C11.935 14.619 11.8709 14.619 11.808 14.629C11.1406 14.6049 10.5088 14.3222 10.046 13.8408C9.5832 13.3593 9.32573 12.7168 9.32798 12.049C9.32798 10.619 10.478 9.469 11.908 9.469C12.5922 9.469 13.2485 9.74082 13.7323 10.2247C14.2162 10.7085 14.488 11.3647 14.488 12.049C14.478 13.449 13.378 14.589 11.998 14.629Z" stroke="#959595" stroke-width="1.5" stroke-linecap="round" stroke-linejoin="round"/>
</svg>
