<svg width="144" height="144" viewBox="0 0 144 144" fill="none" xmlns="http://www.w3.org/2000/svg">
<g clip-path="url(#clip0_19_5)">
<rect x="-4" y="-3" width="151" height="151" fill="white"/>
<path d="M72.7201 76.68C72.2419 76.62 71.7582 76.62 71.2801 76.68C66.1917 76.5087 61.3693 74.3663 57.8313 70.7052C54.2934 67.0441 52.3172 62.1512 52.3201 57.06C52.3201 46.2 61.0801 37.38 72.0001 37.38C77.1567 37.3711 82.1103 39.3889 85.793 42.9984C89.4757 46.608 91.5924 51.5201 91.6869 56.6759C91.7813 61.8317 89.8459 66.8181 86.2979 70.5601C82.75 74.3022 77.8736 76.5001 72.7201 76.68ZM112.44 116.28C101.414 126.414 86.9763 132.027 72.0001 132C56.4001 132 42.2401 126.06 31.5601 116.28C32.1601 110.64 35.7601 105.12 42.1801 100.8C58.6201 89.88 85.5 89.88 101.82 100.8C108.24 105.12 111.84 110.64 112.44 116.28Z" stroke="#4AB2CF" stroke-width="5" stroke-linecap="round" stroke-linejoin="round"/>
<path d="M72 132C105.138 132 132 105.138 132 72C132 38.862 105.138 12 72 12C38.862 12 12 38.862 12 72C12 105.138 38.862 132 72 132Z" stroke="#4AB2CF" stroke-width="5" stroke-linecap="round" stroke-linejoin="round"/>
</g>
<defs>
<clipPath id="clip0_19_5">
<rect width="144" height="144" fill="white"/>
</clipPath>
</defs>
</svg>
