<svg width="24" height="24" viewBox="0 0 24 24" fill="none" xmlns="http://www.w3.org/2000/svg">
<g clip-path="url(#clip0_4_306)">
<path d="M12.989 2.15C15.369 1.69 17.939 2.38 19.789 4.22C22.739 7.17 22.739 11.98 19.789 14.92C18.8125 15.8941 17.5885 16.583 16.2492 16.9126C14.9099 17.2421 13.506 17.1998 12.189 16.79L7.47899 21.49C7.13899 21.84 6.46899 22.05 5.98899 21.98L3.80899 21.68C3.08899 21.58 2.41899 20.9 2.30899 20.18L2.00899 18C1.93899 17.52 2.16899 16.85 2.49899 16.51L3.61899 15.39L7.18899 11.82C6.38899 9.22 7.00899 6.27 9.06899 4.22M6.88999 17.488L9.18999 19.788" stroke="#959595" stroke-width="1.5" stroke-miterlimit="10" stroke-linecap="round" stroke-linejoin="round"/>
<path d="M14.5 11C14.8978 11 15.2794 10.842 15.5607 10.5607C15.842 10.2794 16 9.89782 16 9.5C16 9.10218 15.842 8.72064 15.5607 8.43934C15.2794 8.15804 14.8978 8 14.5 8C14.1022 8 13.7206 8.15804 13.4393 8.43934C13.158 8.72064 13 9.10218 13 9.5C13 9.89782 13.158 10.2794 13.4393 10.5607C13.7206 10.842 14.1022 11 14.5 11Z" stroke="#959595" stroke-width="1.5" stroke-linecap="round" stroke-linejoin="round"/>
</g>
<defs>
<clipPath id="clip0_4_306">
<rect width="24" height="24" fill="white"/>
</clipPath>
</defs>
</svg>
